<svg width="1000" height="1000" viewBox="0 0 1000 1000" fill="none" xmlns="http://www.w3.org/2000/svg">
<rect width="1000" height="1000" rx="250" fill="white"/>
<path fill-rule="evenodd" clip-rule="evenodd" d="M500 110C446.957 110 396.087 130.571 358.58 167.187C321.073 203.804 300.002 253.466 300.002 305.25V354.062H250.002C237.693 354.062 225.817 358.494 216.646 366.509C207.476 374.525 201.657 385.562 200.303 397.506L150.303 836.818C149.53 843.64 150.239 850.544 152.384 857.08C154.529 863.617 158.062 869.638 162.752 874.751C167.442 879.864 173.184 883.954 179.602 886.754C186.021 889.554 192.973 891 200.003 891H799.997C807.027 891 813.979 889.554 820.398 886.754C826.816 883.954 832.558 879.864 837.248 874.751C841.938 869.638 845.471 863.617 847.616 857.08C849.761 850.544 850.47 843.64 849.697 836.818L799.697 397.506C798.343 385.562 792.524 374.525 783.354 366.509C774.183 358.494 762.307 354.062 749.998 354.062H699.998V305.25C699.998 253.466 678.927 203.804 641.42 167.187C603.913 130.571 553.043 110 500 110ZM599.999 354.062V305.25C599.999 279.358 589.463 254.527 570.71 236.219C551.957 217.91 526.521 207.625 500 207.625C473.479 207.625 448.044 217.91 429.29 236.219C410.537 254.527 400.001 279.358 400.001 305.25V354.062H599.999Z" fill="#101E7B"/>
<path fill-rule="evenodd" clip-rule="evenodd" d="M437.823 478.571C440.398 472.14 446.135 468 452.492 468H579.263C591.182 468 598.953 481.919 593.614 493.758L557.554 573.711H610.92C625.223 573.711 632.375 592.88 622.267 604.086L432.309 814.68C420.326 827.965 400.366 814.293 405.737 796.48L446.23 661.804H389.05C386.376 661.804 383.745 661.063 381.395 659.649C379.045 658.235 377.05 656.193 375.593 653.707C374.136 651.222 373.262 648.372 373.05 645.417C372.839 642.462 373.297 639.495 374.382 636.786L437.823 478.571Z" fill="white"/>
</svg>
