<svg width="881" height="900" viewBox="0 0 881 900" fill="none" xmlns="http://www.w3.org/2000/svg">
<path fill-rule="evenodd" clip-rule="evenodd" d="M440.5 0C398.445 0 358.112 15.5401 328.374 43.2018C298.637 70.8634 281.93 108.381 281.93 147.5V184.375H242.288C232.528 184.374 223.112 187.722 215.841 193.778C208.57 199.833 203.957 208.171 202.883 217.194L163.241 549.069C162.627 554.222 163.19 559.438 164.89 564.376C166.591 569.313 169.392 573.862 173.11 577.725C176.829 581.587 181.381 584.677 186.47 586.792C191.56 588.907 197.071 590 202.645 590H678.355C683.929 590 689.44 588.907 694.53 586.792C699.619 584.677 704.171 581.587 707.89 577.725C711.608 573.862 714.409 569.313 716.11 564.376C717.81 559.438 718.373 554.222 717.759 549.069L678.117 217.194C677.043 208.171 672.43 199.833 665.159 193.778C657.888 187.722 648.472 184.374 638.712 184.375H599.07V147.5C599.07 108.381 582.363 70.8634 552.626 43.2018C522.888 15.5401 482.555 0 440.5 0ZM519.785 184.375V147.5C519.785 127.94 511.432 109.182 496.563 95.3509C481.694 81.5201 461.528 73.75 440.5 73.75C419.472 73.75 399.306 81.5201 384.437 95.3509C369.568 109.182 361.215 127.94 361.215 147.5V184.375H519.785Z" fill="#101E7B"/>
<path fill-rule="evenodd" clip-rule="evenodd" d="M391.203 278.434C393.244 273.576 397.793 270.448 402.833 270.448H503.344C512.794 270.448 518.956 280.963 514.722 289.907L486.132 350.307H528.444C539.784 350.307 545.454 364.788 537.44 373.253L386.83 532.345C377.33 542.381 361.504 532.052 365.763 518.596L397.868 416.856H352.533C350.413 416.856 348.326 416.296 346.463 415.228C344.6 414.16 343.019 412.617 341.863 410.739C340.708 408.862 340.015 406.709 339.847 404.476C339.679 402.244 340.042 400.003 340.903 397.956L391.203 278.434Z" fill="white"/>
<path d="M80.7106 825L51.7586 773.864H39.3506V825H13.0306V693.776H62.2866C72.4386 693.776 81.0866 695.593 88.2306 699.228C95.3746 702.737 100.701 707.563 104.211 713.704C107.845 719.72 109.663 726.488 109.663 734.008C109.663 742.656 107.156 750.489 102.143 757.508C97.1293 764.401 89.6719 769.164 79.7706 771.796L111.167 825H80.7106ZM39.3506 754.124H61.3466C68.4906 754.124 73.8173 752.432 77.3266 749.048C80.8359 745.539 82.5906 740.713 82.5906 734.572C82.5906 728.556 80.8359 723.919 77.3266 720.66C73.8173 717.276 68.4906 715.584 61.3466 715.584H39.3506V754.124ZM146.816 708.44C142.179 708.44 138.293 706.999 135.16 704.116C132.152 701.108 130.648 697.411 130.648 693.024C130.648 688.637 132.152 685.003 135.16 682.12C138.293 679.112 142.179 677.608 146.816 677.608C151.453 677.608 155.276 679.112 158.284 682.12C161.417 685.003 162.984 688.637 162.984 693.024C162.984 697.411 161.417 701.108 158.284 704.116C155.276 706.999 151.453 708.44 146.816 708.44ZM159.788 720.848V825H133.468V720.848H159.788ZM243.508 719.344C255.916 719.344 265.943 723.292 273.588 731.188C281.234 738.959 285.056 749.863 285.056 763.9V825H258.736V767.472C258.736 759.2 256.668 752.871 252.532 748.484C248.396 743.972 242.756 741.716 235.612 741.716C228.343 741.716 222.578 743.972 218.316 748.484C214.18 752.871 212.112 759.2 212.112 767.472V825H185.792V720.848H212.112V733.82C215.622 729.308 220.071 725.799 225.46 723.292C230.975 720.66 236.991 719.344 243.508 719.344ZM303.317 772.548C303.317 762.02 305.385 752.683 309.521 744.536C313.783 736.389 319.485 730.123 326.629 725.736C333.899 721.349 341.983 719.156 350.881 719.156C358.652 719.156 365.42 720.723 371.185 723.856C377.076 726.989 381.776 730.937 385.285 735.7V720.848H411.793V825H385.285V809.772C381.901 814.66 377.201 818.733 371.185 821.992C365.295 825.125 358.464 826.692 350.693 826.692C341.92 826.692 333.899 824.436 326.629 819.924C319.485 815.412 313.783 809.083 309.521 800.936C305.385 792.664 303.317 783.201 303.317 772.548ZM385.285 772.924C385.285 766.532 384.032 761.08 381.525 756.568C379.019 751.931 375.635 748.421 371.373 746.04C367.112 743.533 362.537 742.28 357.649 742.28C352.761 742.28 348.249 743.471 344.113 745.852C339.977 748.233 336.593 751.743 333.961 756.38C331.455 760.892 330.201 766.281 330.201 772.548C330.201 778.815 331.455 784.329 333.961 789.092C336.593 793.729 339.977 797.301 344.113 799.808C348.375 802.315 352.887 803.568 357.649 803.568C362.537 803.568 367.112 802.377 371.373 799.996C375.635 797.489 379.019 793.98 381.525 789.468C384.032 784.831 385.285 779.316 385.285 772.924ZM485.251 742.468H467.015V825H440.319V742.468H428.475V720.848H440.319V715.584C440.319 702.8 443.954 693.4 451.223 687.384C458.493 681.368 469.459 678.548 484.123 678.924V701.108C477.731 700.983 473.282 702.048 470.775 704.304C468.269 706.56 467.015 710.633 467.015 716.524V720.848H485.251V742.468ZM495.54 772.548C495.54 762.02 497.608 752.683 501.744 744.536C506.005 736.389 511.708 730.123 518.852 725.736C526.121 721.349 534.205 719.156 543.104 719.156C550.875 719.156 557.643 720.723 563.408 723.856C569.299 726.989 573.999 730.937 577.508 735.7V720.848H604.016V825H577.508V809.772C574.124 814.66 569.424 818.733 563.408 821.992C557.517 825.125 550.687 826.692 542.916 826.692C534.143 826.692 526.121 824.436 518.852 819.924C511.708 815.412 506.005 809.083 501.744 800.936C497.608 792.664 495.54 783.201 495.54 772.548ZM577.508 772.924C577.508 766.532 576.255 761.08 573.748 756.568C571.241 751.931 567.857 748.421 563.596 746.04C559.335 743.533 554.76 742.28 549.872 742.28C544.984 742.28 540.472 743.471 536.336 745.852C532.2 748.233 528.816 751.743 526.184 756.38C523.677 760.892 522.424 766.281 522.424 772.548C522.424 778.815 523.677 784.329 526.184 789.092C528.816 793.729 532.2 797.301 536.336 799.808C540.597 802.315 545.109 803.568 549.872 803.568C554.76 803.568 559.335 802.377 563.596 799.996C567.857 797.489 571.241 793.98 573.748 789.468C576.255 784.831 577.508 779.316 577.508 772.924ZM721.09 733.256C718.082 727.741 713.946 723.543 708.682 720.66C703.418 717.777 697.277 716.336 690.258 716.336C682.487 716.336 675.594 718.091 669.578 721.6C663.562 725.109 658.862 730.123 655.478 736.64C652.094 743.157 650.402 750.677 650.402 759.2C650.402 767.973 652.094 775.619 655.478 782.136C658.987 788.653 663.813 793.667 669.954 797.176C676.095 800.685 683.239 802.44 691.386 802.44C701.413 802.44 709.622 799.808 716.014 794.544C722.406 789.155 726.605 781.697 728.61 772.172H683.49V752.056H754.554V774.992C752.799 784.141 749.039 792.601 743.274 800.372C737.509 808.143 730.051 814.409 720.902 819.172C711.878 823.809 701.726 826.128 690.446 826.128C677.787 826.128 666.319 823.308 656.042 817.668C645.89 811.903 637.869 803.944 631.978 793.792C626.213 783.64 623.33 772.109 623.33 759.2C623.33 746.291 626.213 734.76 631.978 724.608C637.869 714.331 645.89 706.372 656.042 700.732C666.319 694.967 677.725 692.084 690.258 692.084C705.047 692.084 717.894 695.719 728.798 702.988C739.702 710.132 747.222 720.221 751.358 733.256H721.09ZM820.275 826.692C810.248 826.692 801.224 824.499 793.203 820.112C785.181 815.6 778.852 809.271 774.215 801.124C769.703 792.977 767.447 783.577 767.447 772.924C767.447 762.271 769.765 752.871 774.403 744.724C779.165 736.577 785.62 730.311 793.767 725.924C801.913 721.412 811 719.156 821.027 719.156C831.053 719.156 840.14 721.412 848.287 725.924C856.433 730.311 862.825 736.577 867.463 744.724C872.225 752.871 874.607 762.271 874.607 772.924C874.607 783.577 872.163 792.977 867.275 801.124C862.512 809.271 855.995 815.6 847.723 820.112C839.576 824.499 830.427 826.692 820.275 826.692ZM820.275 803.756C825.037 803.756 829.487 802.628 833.623 800.372C837.884 797.991 841.268 794.481 843.775 789.844C846.281 785.207 847.535 779.567 847.535 772.924C847.535 763.023 844.903 755.44 839.639 750.176C834.5 744.787 828.171 742.092 820.651 742.092C813.131 742.092 806.801 744.787 801.663 750.176C796.649 755.44 794.143 763.023 794.143 772.924C794.143 782.825 796.587 790.471 801.475 795.86C806.488 801.124 812.755 803.756 820.275 803.756Z" fill="#101E7B"/>
</svg>
